<?xml version="1.0" encoding="UTF-8"?>
<svg xmlns="http://www.w3.org/2000/svg" viewBox="0 0 1080 1080">
  <defs>
    <style>
      .cls-1 {
        fill: #010101;
      }
    </style>
  </defs>
  <g id="Deck">
    <path id="Deck-2" data-name="Deck" class="cls-1" d="M142.8660700821,489.5891119842c1.1981724454-52.7769472098,7.730179104-105.8176627174,21.1195169718-157.5965677193,13.5690105769-51.6330007363,34.0522310016-102.4632903826,66.7994427693-147.053915197,32.7068119869-44.3691544959,79.4222479545-80.4844999327,133.6642693942-103.1001363628,54.15962715-22.8542160436,114.5099891263-33.4182551847,174.532368672-33.8996917354,30.2525253053-.1373496181,60.4885717527,.181073372,89.9086489438,4.8495346138,29.4126351262,4.6214106806,57.8705596438,13.5895328055,83.7769190603,26.7812745024,52.0482070288,26.4704556434,93.8556012094,66.5185626374,129.5137234965,109.2162340642,36.2609295422,42.387327826,57.5686244402,93.2385288328,72.0918140497,144.6039592058,14.3419221721,51.5968811136,21.9253862828,104.4893160645,24.7634708817,157.2558075941,1.3454190147,26.3107688902,.5220076936,52.8463349062,.8149061041,79.246927595,.0111630973,8.6748878191,.0223261946,44.8829086038,.0345524441,63.4564740921h45.8133513892c-.0175420101-11.7645413397-.0324261398-23.4882104747-.0473102696-35.2798415314-.3263877025-29.4351162589,.5916441578-59.0204141073-.9084634912-88.354775629-3.1644723014-58.8307860877-11.6191895789-117.8017733428-27.6100606975-175.3289262038-16.1918068704-57.2690876616-39.9484726893-113.9640634245-80.3764269871-161.2227877412-39.7565737306-47.6047122821-86.3683523661-92.2556948872-144.3989164047-121.7682782318-28.8831853678-14.7078153365-60.6118973992-24.7062972265-93.4042931322-29.8590465682-32.8019641021-5.2050277431-66.5123916954-5.5600456142-100.2419560269-5.4070124756-66.9206421116,.5365665013-134.2070085543,12.3148903286-194.5913913986,37.7958584116-60.4758139272,25.2148234943-112.5601681283,65.4805987413-149.0252228786,114.9492736611-36.5113018677,49.7153339226-59.3488726742,106.3870220341-74.476464267,163.9545718416-14.9282505693,57.7291375936-22.2108426285,116.8655147002-23.5466932741,175.7081822428-.0356155962,41.7452540056-.0706996163,83.3222666104-.1057836365,124.8127822239h45.8122882371c.0292366834-39.7216046146,.0584733669-109.1625298883,.0877100503-143.7599006528Z"/>
  </g>
  <g id="Text_Skatepark" data-name="Text Skatepark">
    <g>
      <path class="cls-1" d="M334.2334594727,1014.4334106445c-8.9219970703,0-16.0663452148,.3827514648-21.4204101562,.9611206055l-3.823059082,.3826904297c-.7655029297,0-1.0206298828,0-1.0206298828-.1870727539,0-1.7265625,15.8111572266-14.3823242188,47.6887207031-38.358581543,5.3540649414-4.0229492188,8.4159545898-6.3278808594,8.9262084961-6.8977050781,1.2758178711-1.1567382812,2.292175293-2.1093139648,3.3128051758-2.8832397461,2.8067016602-2.1093139648,5.3582763672-4.7884521484,7.9055786133-8.2415771484,.7655029297-.9611206055,1.0206298828-1.7265625,1.0206298828-2.6876831055,0-1.7265014648-1.0206298828-3.4530639648-3.0576171875-4.9840087891-2.0412597656-1.5309448242-3.827331543-2.3049316406-5.3582763672-2.3049316406-.7654418945,0-1.2757568359,.1956176758-1.7860717773,.3827514648-18.1033935547,10.9376831055-34.9351806641,23.5934448242-51.0015258789,38.162902832-3.3170776367,3.0703735352-5.3583374023,4.9925537109-6.6298217773,5.5623779297l.5103149414-.7654418945c.2508544922-.7655029297,.5060424805-1.3438110352,.7611694336-1.9221801758,.2551879883-.3827514648,1.7861328125-3.827331543,5.1031494141-10.5464477539,3.3128051758-6.7106323242,4.84375-9.9681396484,4.84375-10.1637573242l2.0411987305-4.6013183594c1.2758178711-2.1093139648,1.7861328125-3.6402587891,1.7861328125-4.6013183594,0-.5698852539-.2551879883-.9611206055-.5103149414-1.5309448242-1.7860717773-2.1093139648-3.5722045898-3.6487426758-5.8685913086-4.6013183594-2.292175293-.7655029297-3.8231201172-1.1567382812-5.0988769531-1.1567382812-1.5309448242,0-2.8067626953,.5783691406-4.0782470703,1.5394897461-2.0412597656,2.1092529297-4.8480224609,6.7105712891-8.671081543,13.8039550781-3.827331543,7.2889404297-7.3952636719,15.5305175781-10.7123413086,24.5460205078-3.5722045898,9.2026367188-6.1195068359,17.8354492188-7.3952636719,25.6942749023-.2262573242,.5128173828-2.4638061523,1.1734008789-7.0546264648,2.1226806641-1.2715454102-1.4768066406-3.080078125-3.0208740234-5.4437866211-4.6146850586-5.3582763672-4.0230102539-9.1813964844-8.8199462891-11.22265625-14.3823242188l-.7654418945-1.7265625c-1.0206298828-2.6791381836-1.5309448242-6.3278808594-1.5309448242-11.1163330078,0-4.2185668945,.7654418945-8.2500610352,2.551574707-12.0859375,1.5309448242-3.6401977539,3.5721435547-7.0933227539,5.8643188477-10.1636962891,.2551879883-.5698852539,.5103149414-.7655029297,.7655029297-.7655029297h.2551269531l-1.0206298828,5.1796875c-.7654418945,5.1796875-1.0206298828,9.3982543945-1.0206298828,12.8428955078,0,1.7265625,.2551879883,3.6487426758,.7655029297,5.5623779297,.5103149414,1.9221801758,2.8067016602,3.2660522461,7.1401367188,3.8358764648l1.2757568359,.1956176758c1.5309448242,0,2.2963867188-.7654418945,2.551574707-2.3049316406,.5103149414-2.4920043945,1.0206298828-4.7883911133,1.7860717773-7.0933227539,.2551879883-.7655029297,.5103149414-1.5309448242,.7655029297-2.4920043945,1.0163574219-3.6402587891,2.2921142578-7.0933837891,3.823059082-10.7421264648l.5103149414-.9525756836c1.0206298828-2.5005493164,2.2964477539-4.9925537109,3.827331543-7.4846191406,1.7818603516-4.4057006836,2.8024902344-7.6716918945,2.8024902344-9.5853271484,0-.9611206055-.2551269531-1.5394897461-.5103149414-1.7265625-3.3127441406-3.2575073242-7.6504516602-4.9840698242-13.0044555664-5.3668212891h-1.0206298828c-2.8067016602,0-5.0988769531,2.1093139648-6.3746948242,6.1322631836,0,.3827514648-.2551269531,.5783691406-1.0206298828,.5783691406-.2551269531-.1956176758-.5102539062-.1956176758-.7654418945-.1956176758-.2551269531,0-.5103149414,0-.7654418945-.1871337891-1.7861328125-.3827514648-3.3128051758-.5783691406-5.0988769531-.5783691406-5.8643798828,0-10.9675292969,2.4920654297-15.8112182617,7.6717529297-1.7861328125,1.3438110352-3.3170166016,3.453125-4.8479614258,6.7105712891l-.2551879883,.3827514648c-2.5473022461,5.1796875-3.823059082,10.7420654297-3.823059082,17.0699462891,0,4.2186279297,.7654418945,8.4371948242,2.5515136719,12.460144043,2.292175293,6.7191772461,6.8850097656,13.4297485352,13.2596435547,19.7576293945,1.2758178711,1.1481933594,2.2964477539,2.2964477539,3.5679321289,3.453125,1.0206298828,1.3353271484,1.5309448242,2.4920654297,1.5309448242,3.4446411133,0,1.7265625-1.7860717773,3.453125-5.6091918945,5.3752441406l-.2551269531,.1871337891c-3.0618896484,1.5394287109-6.3746948242,2.6876220703-9.9468383789,3.453125l-1.0206298828,.1956787109c-4.0782470703,.9525146484-8.1607666016,1.9135742188-12.4942016602,2.4919433594-1.2757568359,.5698242188-3.3170166016,.7655029297-6.1195068359,.7655029297l-3.5721435547-.1956787109-1.2758178711,.1956787109c-1.7860717773,.1871337891-2.8024291992,.7655029297-3.3127441406,2.1092529297v.3828125c0,.7653808594,.7611694336,1.5308837891,2.2921142578,2.1092529297,2.2964477539,1.3438720703,5.8685913086,1.9222412109,10.9674682617,1.9222412109,2.2964477539,0,4.3334350586-.1956787109,6.3746948242-.5783691406,2.2963867188,0,6.6298217773-.5783691406,13.5190429688-1.5395507812,5.0537109375-.4516601562,10.1030883789-1.3963623047,14.9025268555-2.7192382812,.9837646484,.5266113281,1.8046264648,.8056640625,2.4395751953,.8056640625,1.0206298828,0,2.551574707-.3828125,4.3377075195-.9611816406,1.7817993164-.5698242188,5.0988769531-1.34375,9.942565918-2.2963867188h.2551879883c.7654418945,0,1.2757568359,.7655029297,1.2757568359,2.2963867188l-.2551269531,3.0704345703c-.5103149414,2.1092529297-.7655029297,4.7969970703-.7655029297,7.8587646484,0,1.5395507812,0,3.0704345703,.2551879883,4.7969970703,.2551269531,1.7265625,1.0206298828,3.2574462891,2.8067016602,4.2186279297,1.7860717773,1.1481933594,3.827331543,1.7265625,6.3746337891,1.7265625,2.2964477539,0,3.3170776367-.3828125,3.3170776367-1.3438720703,0-.1871337891-.2551879883-.5698242188-.5103149414-.9525146484-.2551879883-.3913574219-.5103149414-1.1567382812-.5103149414-2.3049316406,0-2.109375,.5103149414-5.9451904297,1.7860717773-11.1248779297,1.2758178711-6.1322021484,2.292175293-9.7810058594,2.5473022461-10.7335205078,.2551879883-.9611816406,8.671081543-2.8833007812,25.7580566406-5.9451904297,11.22265625-2.1092529297,19.1282348633-3.0703735352,23.4616699219-3.0703735352,1.7860717773,0,3.0618286133,.1870727539,3.827331543,.5783691406,.7654418945,.3827514648,1.2757568359,.7654418945,1.5309448242,1.1481323242,.2551269531,.3828125,.5103149414,.5698242188,.7654418945,.7655029297,.2551879883,.1956787109,.7655029297,.3826904297,1.2715454102,.5783691406,.5103149414,.1871337891,1.0206298828,.3826904297,1.5309448242,.3826904297,.7654418945,0,1.5309448242-.3826904297,2.0412597656-.9610595703s.7654418945-1.3438720703,.7654418945-2.3049316406c0-5.9365844727-6.8849487305-8.8198852539-20.4039916992-8.8198852539Z"/>
      <path class="cls-1" d="M411.7712402344,1042.6281738281c-2.8024291992-1.34375-5.8643188477-1.9221191406-9.1813354492-1.9221191406h-.5103149414c-.2551879883,0-.5061035156,0-1.016418457,.1955566406-.5103149414,.1871337891-1.0206298828,.1871337891-1.7860717773,.1871337891-4.8479614258,.3826904297-11.22265625,1.5394287109-19.1282348633,3.2659912109l-9.6917114258,2.109375c-4.8436889648,.9525146484-9.1813354492,2.1092529297-13.5147705078,3.8358154297-2.0412597656,.5698242188-3.0618896484,1.5308837891-3.0618896484,2.6790771484l.2551879883,1.1567382812c1.2757568359,3.0618896484,4.0824584961,5.3668212891,8.1607055664,6.8977050781,.7655029297,.3828125,1.7861328125,.5783691406,2.8067626953,.5783691406l4.8436889648-.7653808594c2.2964477539-.3828125,6.6340942383-1.5395507812,12.7536010742-3.453125,11.4735107422-3.453125,19.6342773438-5.7580566406,24.7374267578-6.90625,1.0206298828-.1871337891,2.0412597656-.3828125,2.8024291992-.5783691406l2.0412597656-.3828125c.5103149414,0,1.0206298828,0,1.7861328125,.1956787109,.5103149414,.1871337891,1.0206298828,.3826904297,1.7860717773,.3826904297,.2551879883,0,.7655029297-.1955566406,1.0206298828-.3826904297,.2551879883-.1956787109,.5103149414-.5783691406,.5103149414-.7655029297l-.2551269531-1.1567382812c-.7655029297-2.1092529297-2.551574707-3.8272705078-5.3583374023-5.1711425781Z"/>
      <path class="cls-1" d="M416.1089477539,1017.1210327148c-1.2758178711,0-1.7861328125-.3826904297-2.0412597656-1.3438110352l-1.0206298828-7.8588256836v-3.0703735352c-.5103149414-3.0703735352-.7655029297-6.1407470703-.7655029297-9.2026367188l.2551879883-13.0385131836c0-2.1092529297,.2551269531-4.4141845703,.5103149414-6.5234985352l1.2757568359-15.913269043-.2551269531-6.3278808594h.5103149414l-.2551879883-2.3048706055c-.2551269531-.5783691406-.5103149414-1.1482543945-1.0206298828-1.7265625-3.5679321289-3.0703735352-8.1607666016-4.7969360352-13.7699584961-5.1796875h-.5102539062c-2.2964477539,0-3.8273925781,.7654418945-4.8480224609,2.4920043945-1.0163574219,1.7265625-2.0369873047,3.453125-2.8024291992,5.1796875-2.8067626953,4.7969360352-4.3377075195,7.6716918945-4.8480224609,9.0155639648-.7654418945,1.3438110352-1.5266723633,2.4920043945-2.2921142578,3.8358154297-.7655029297,1.3438110352-1.5309448242,2.8747558594-2.2964477539,4.6013183594-.7654418945,1.7265625-1.5308837891,3.453125-2.5515136719,5.1796875s-2.8024902344,4.9840698242-5.0988769531,10.1637573242l-1.0206298828,1.9136352539c-.7655029297,2.6876831055-2.2964477539,5.7580566406-4.0825195312,9.3983154297l-2.292175293,5.5623779297c-.2551269531,.9611206055-.5103149414,1.7265625-.7654418945,2.4920043945l-4.3376464844,12.2730712891c-.2551879883,1.3438110352-.5103149414,2.6876220703-1.016418457,3.8358154297-.7654418945,1.1482543945-1.0206298828,2.2964477539-1.0206298828,3.2575073242-.7654418945,2.4920654297-1.2757568359,5.1796875-1.5309448242,7.8673095703,0,1.9136962891,1.2758178711,3.2575683594,3.5679931641,4.0229492188,1.2757568359,.5783691406,2.2963867188,.7655029297,3.5721435547,.9611816406,1.2758178711,.1870117188,2.2964477539,.7653808594,3.5722045898,1.34375,1.0163574219,.5698242188,2.292175293,.9526367188,3.5679321289,.9526367188,.7655029297,0,1.7861328125-.1871337891,2.551574707-.3828125,.7654418945-.1870117188,1.7860717773-.3826904297,2.5473022461-.5698242188,1.7861328125-.3912353516,3.3170166016-.9610595703,4.8479614258-1.5394287109,3.5679321289-1.3438720703,7.1401367188-2.4920654297,10.7123413086-3.453125,2.5473022461-.5698242188,5.0988769531-1.3353271484,7.3952636719-2.1092529297,.7655029297-.1871337891,1.2715454102-.3828125,1.5267333984-.3828125,.7654418945,0,1.2757568359,.3828125,1.7860717773,1.1567382812,1.7860717773,3.6402587891,4.8479614258,6.5150146484,9.6917114258,8.6242675781,2.551574707,1.3438720703,5.3540039062,1.9222412109,8.4158935547,1.9222412109h.7655029297c1.5308837891-.1956787109,2.2963867188-.5783691406,2.2963867188-1.1567382812,0-.1871337891-.2551879883-.5698242188-.7655029297-1.1481933594-3.3170166016-3.2574462891-5.3582763672-6.7105712891-6.6297607422-10.3508300781-.2551879883-.7740478516-.5103149414-1.3438720703-.5103149414-1.7265625s1.0163574219-.7740478516,2.8024291992-.9610595703q.2551879883,0,.2551879883-.1956787109l4.5927734375-.5698242188c.7655029297,0,1.7818603516,.1871337891,2.8024902344,.3826904297l1.0206298828,.1871337891c.7654418945,0,1.2757568359-.5698242188,1.2757568359-1.5308837891-.2551269531-.7655029297-.5103149414-1.5309448242-1.2757568359-2.3049316406-2.8024902344-3.2575073242-6.8849487305-5.1712036133-12.494140625-5.7495727539Zm-20.1488647461,3.0704345703c-1.7861328125,.1870727539-6.1195068359,1.3438110352-12.4942016602,3.2574462891l-.5103149414,.1956787109q-.2551269531,0-.5103149414-.1956787109-.2551269531,0-.2551269531-.1956176758l1.7860717773-3.827331543c3.5679321289-6.7191162109,6.1195068359-12.8513793945,7.6504516602-18.4137573242,.2551879883-1.5309448242,.7655029297-2.8748168945,1.7861328125-4.2186279297,.2551269531-.1956176758,.5060424805-.7654418945,.5060424805-1.5309448242v1.3353271484c0,1.5394287109,.2551269531,2.8833007812,.5103149414,4.2186279297,.2551269531,1.3438110352,.5103149414,2.6876220703,.7654418945,4.0314331055l1.5309448242,7.4760742188,.2551879883,.7655029297c.2551269531,1.7265625,.5103149414,3.453125,1.2757568359,5.1796875l.2551879883,.7654418945c0,.5783691406-.7655029297,.9611206055-2.551574707,1.1567382812Z"/>
      <path class="cls-1" d="M462.0158081055,973.2086181641c.7655029297-1.7265625,1.2758178711-3.6487426758,1.7818603516-5.7579956055,.2551879883-1.9136962891,1.0206298828-3.8358764648,1.7861328125-5.9451904297,.7654418945-3.4445800781,1.7860717773-6.8977050781,3.0618286133-10.1636962891,.5103149414-1.1482543945,1.0206298828-2.4920654297,1.2758178711-3.8358764648,0-.9525756836,.5103149414-1.5309448242,1.5309448242-1.7180786133,4.3333740234-.9610595703,10.9631958008-1.7265625,19.8894042969-2.5004882812l9.6917114258-1.1481933594c4.0782470703-.5783691406,8.1607666016-1.1482543945,12.2390136719-1.3438720703,.7654418945,0,1.7860717773,0,2.551574707-.1870727539,.7654418945-.1956176758,1.7860717773-.1956176758,2.8067016602-.1956176758,1.2758178711,0,2.292175293,.1956176758,3.0576171875,.3826904297,.7655029297,.3827514648,1.2758178711,.5783691406,2.0412597656,.5783691406,.7655029297,0,1.2758178711-.1956176758,2.0412597656-.5783691406,.7655029297-.1870727539,1.0206298828-.7654418945,1.0206298828-1.7265625l-.2551269531-.7654418945c-.7655029297-2.8747558594-2.551574707-5.5624389648-5.3583374023-7.6716918945-2.2921142578-1.7265625-5.0988769531-2.6791381836-8.4158935547-2.8747558594-2.8024902344,0-7.3952636719,.3826904297-14.2802734375,.9610595703-9.9468383789,.9611206055-16.8317871094,1.7265625-20.9100341797,2.4920043945h-.7655029297c-.7654418945,0-1.0206298828-.1956176758-1.0206298828-.7654418945v-.1956176758c.2551879883-.1871337891,.5103149414-2.2963867188,1.2758178711-6.7106323242v-.5783691406c0-.7654418945-.2551879883-1.3352661133-.5103149414-1.9136352539-2.0412597656-3.453125-5.3540649414-5.7495117188-10.2020263672-6.7106323242-.7654418945-.1956176758-1.5309448242-.3827514648-2.2963867188-.3827514648-1.7818603516,0-3.3128051758,.7655029297-4.5885620117,2.4920654297-1.7861328125,1.9136352539-3.0618896484,4.0229492188-3.8273925781,6.1322631836-.2551269531,.7739868164-.5060424805,1.5394287109-1.0163574219,2.1092529297-.5103149414,.5783691406-1.0206298828,1.3438720703-1.2757568359,2.3049316406-.2551879883,.9611206055-.7655029297,1.9136962891-1.0206298828,2.8747558594-.5103149414,1.1481933594-.7655029297,2.3049316406-1.0206298828,3.2575073242-.2551879883,1.1567382812-.7655029297,1.9221801758-1.5309448242,2.1093139648-.7655029297,.3912353516-1.5309448242,.5783081055-2.5473022461,.7739868164-.2551879883,.1870727539-.7655029297,.1870727539-1.5309448242,.1870727539-.7655029297,.1956176758-2.0412597656,.3827514648-4.0825195312,.7655029297-2.0412597656,.3826904297-4.0782470703,.7739257812-6.1195068359,1.1566772461-2.2963867188,.3827514648-3.827331543,.7655029297-4.5885620117,.9525756836-.7654418945,.3827514648-1.7860717773,.7739868164-2.551574707,1.1567382812-.7654418945,.3827514648-1.5309448242,.7654418945-2.2963867188,.9525756836-1.5309448242,.5783691406-2.2964477539,1.7265625-2.2964477539,3.0703735352,0,1.7265625,1.0206298828,3.6487426758,2.8067626953,5.5624389648,1.7860717773,1.9136352539,3.827331543,2.8747558594,6.3746337891,2.8747558594,1.0206298828,0,2.0412597656-.1871337891,2.8067626953-.3827514648,.7654418945-.1871337891,2.8067016602-.3827514648,5.8643188477-.3827514648,2.8067016602,0,4.0825195312,.1956176758,4.0825195312,.3827514648-.7655029297,1.9221801758-1.2758178711,4.4142456055-1.7861328125,7.2890014648l-3.827331543,17.6397705078-2.8024902344,13.8125c-.2551269531,1.1481933594-.2551269531,2.4920043945-.5103149414,3.8358764648-.2551269531,1.5309448242-.5102539062,3.0618286133-.7654418945,4.7883911133l-2.0412597656,12.8513793945c-1.0206298828,7.6717529297-1.5309448242,12.6558227539-1.5309448242,14.9607543945v6.7105712891l.2551879883,4.0229492188c0,8.2501220703,3.5722045898,14.7650146484,10.4571533203,19.7491455078,2.2963867188,2.1092529297,5.3540039062,3.453125,8.671081543,4.2185058594l2.0412597656,.1956787109c1.2757568359,0,1.7817993164-.5783691406,1.7817993164-1.5308837891,0-.3828125-.5060424805-.9611816406-1.5266723633-1.7265625-3.0618896484-2.4920654297-4.8479614258-5.3753662109-5.1031494141-8.6328125-.5103149414-2.6877441406-.7654418945-5.3668212891-.7654418945-8.2415771484l.2551269531-4.0314941406c.2551879883-.7655029297,.2551879883-1.5308837891,.2551879883-2.4920654297,0-1.5308837891,.2551269531-3.0703125,.5103149414-4.4141845703,.2551269531-1.3353271484,.5103149414-2.6790771484,.7654418945-4.0229492188,.2551879883-3.8358764648,.7655029297-6.90625,1.2758178711-9.0155029297,.2551269531-.9525756836,.5103149414-2.2964477539,.7654418945-3.6402587891,.2551879883-1.3438110352,1.2758178711-6.3278808594,3.3128051758-14.9606933594,.7654418945-2.8747558594,1.5309448242-5.5623779297,2.0412597656-8.2415161133,.5103149414-2.4920654297,1.0206298828-4.9925537109,1.7860717773-7.2890014648,1.0206298828-3.8358154297,1.5309448242-6.1407470703,1.5309448242-7.0933227539,.2551269531-1.3438110352,.5103149414-2.6876831055,1.2757568359-3.8358764648Z"/>
      <path class="cls-1" d="M520.1617431641,954.412109375c-4.0825195312,.7654418945-6.6298217773,1.1481933594-7.3952636719,1.1481933594-1.0206298828,.1956176758-2.0412597656,.1956176758-3.0618896484,.3912353516-1.7860717773,.1871337891-5.8643798828,1.1481933594-12.7493286133,2.6791381836-3.827331543,.7655029297-7.3995361328,1.9221801758-10.9674682617,3.2575073242-2.2963867188,.5783691406-4.3376464844,1.5394287109-6.6298217773,3.2659912109-1.2757568359,.9525756836-1.7860717773,1.7265625-1.7860717773,2.6791381836,0,.5783691406,.2551269531,1.3438110352,.5103149414,1.9221801758,1.2757568359,2.2964477539,3.0576171875,4.2186279297,5.6091918945,5.5624389648,1.2757568359,.9525756836,3.0618286133,1.5309448242,5.1030883789,1.5309448242l5.0988769531-.7655029297c2.2964477539-.3826904297,4.5885620117-.9610595703,6.8850097656-1.5309448242,.7654418945-.3912353516,1.7860717773-.7739257812,3.0618286133-.9610595703,1.0206298828-.1956176758,2.0370483398-.3827514648,3.0576782227-.7655029297h.2551269531c.7655029297-.3826904297,1.5309448242-.5783081055,2.2963867188-.7739257812,3.0618896484-.1871337891,6.1195068359-.9526367188,8.9262695312-2.1093139648,.2551269531,0,.5103149414-.1871337891,1.0206298828-.3827514648,.2551269531-.1870727539,1.0206298828-.3827514648,2.2921142578-.3827514648-.7611694336,.5783691406-1.7817993164,1.1567382812-3.5679321289,1.7265625-5.3540039062,2.8748168945-10.7122802734,5.7580566406-16.0663452148,8.4371948242-5.3540039062,2.8747558594-10.2020263672,5.9451293945-14.5354003906,9.3982543945-2.8067626953,2.3049316406-5.8685913086,4.0314941406-9.6917114258,5.3668212891-3.827331543,1.3438110352-6.8849487305,3.453125-9.1813964844,5.9451293945-.5103149414,.7655029297-.7654418945,1.5394287109-.7654418945,2.1093139648,0,.5783691406,0,.9610595703,.2551269531,1.3438110352,1.5309448242,3.2575073242,4.3377075195,5.3667602539,8.4159545898,6.7106323242,.5103149414,.1956176758,1.0206298828,.3826904297,1.5309448242,.3826904297,.7654418945,0,3.3127441406-.9525756836,7.650390625-2.6791381836l11.4778442383-4.6013183594c3.823059082-1.7265625,7.9055786133-3.2659912109,12.494140625-4.7969360352,4.3333740234-1.5309448242,7.9055786133-2.6876220703,10.4571533203-3.6401977539,1.0206298828-.5783691406,3.8231201172-1.5394897461,8.4158935547-2.8833007812,4.3334350586-1.3438110352,8.9262695312-2.8747558594,13.7699584961-4.4057006836,4.84375-1.3438110352,9.6917114258-2.4920043945,14.5354003906-3.453125,1.5309448242-.1956176758,2.2964477539-.9610595703,2.2964477539-1.9221801758l-.2551879883-1.1481933594c-.7654418945-1.7265625-2.2963867188-3.2575073242-4.3376464844-4.6013183594-1.2715454102-.7654418945-2.5473022461-1.1481933594-4.0782470703-1.1481933594-5.6091918945,.3827514648-13.5147705078,1.9136352539-23.716796875,4.6013183594l-3.0618896484,.5783691406-11.7286987305,2.8747558594-3.5722045898,.9525756836c-2.2963867188,.3912353516-4.3333740234,.9610595703-6.6297607422,1.7265625,.7654418945-.5698852539,1.2757568359-1.1481933594,2.0411987305-1.5309448242l.7655029297-.1956176758c11.4735107422-6.5150146484,23.2064819336-12.6557617188,35.7006225586-18.4052734375,3.8273925781-2.1093139648,7.6504516602-3.453125,10.9674682617-4.0314941406h.7655029297l2.5473022461,.3912353516c1.5309448242,0,2.2963867188-.5783691406,2.2963867188-1.9221801758v-.7654418945c-.7654418945-2.4920654297-2.2963867188-4.6013183594-5.0988769531-6.3278808594-1.2757568359-.7655029297-2.8067016602-1.3438720703-4.5927734375-1.5394897461-3.3128051758,0-8.1607666016,.3912353516-14.0251464844,.9611206055-1.2757568359,.1956176758-2.5515136719,.3827514648-3.823059082,.5783691406l-6.8892211914,.9610595703c-.7655029297,.1871337891-1.5266723633,.1871337891-2.292175293,.1871337891Z"/>
      <path class="cls-1" d="M631.1038208008,998.3245239258c2.8067016602-2.4920043945,5.0988769531-5.1711425781,6.8849487305-8.0544433594l.7655029297-.9525756836c.7654418945-.9610595703,1.5308837891-2.3049316406,2.2963867188-4.0314941406,2.292175293-4.4057006836,3.3127441406-8.8198852539,3.3127441406-13.4212036133,0-9.3982543945-5.0988769531-16.6872558594-15.045715332-21.4757080078-5.8643188477-2.8832397461-12.7493286133-4.4141845703-20.3997192383-4.4141845703-6.3789672852,0-13.2639160156,.9611206055-20.6591796875,3.0703735352-1.2758178711,.1871337891-2.551574707,.3827514648-3.5679321289,.3827514648-.7655029297,0-1.5309448242,0-2.0412597656-.1956176758-.7655029297-.1871337891-1.2758178711-.1871337891-1.7861328125-.1871337891-1.2757568359,0-2.551574707,.7655029297-3.823059082,2.1093139648-.2551879883,.3827514648-.5103149414,.7654418945-.7655029297,1.3438110352-.2551269531,.5698852539-.7654418945,1.1481933594-1.5309448242,1.7265625-2.2963867188,1.3353271484-4.0824584961,2.6791381836-5.3582763672,4.0229492188-1.2715454102,1.5309448242-2.0369873047,2.6876831055-2.0369873047,3.6402587891,0,1.3438110352,.2551269531,2.3049316406,1.0206298828,3.2659912109,.5060424805,.9525756836,.7612304688,2.1093139648,.7612304688,3.0703735352,0,1.3353271484-.5061035156,3.2575073242-1.5267333984,5.5539550781-.5102539062,1.1566772461-.7654418945,1.9221801758-.7654418945,2.3048706055-.2551269531,.3827514648-.5103149414,1.3438110352-.7654418945,2.8747558594l-4.0825195312,13.4212646484c-1.5266723633,5.3753051758-2.8024902344,10.7420654297-3.5679321289,16.1088867188-.0309448242,.0701904297-.0903930664,.1177978516-.1354370117,.1770629883-.0447387695-.0586547852-.0816040039-.1185302734-.1282348633-.1770629883-1.7861328125-2.8747558594-4.84375-4.6013183594-8.671081543-5.3668212891h-1.5309448242c-2.292175293,0-10.1977539062,1.3438110352-23.716796875,3.8358764648-5.8643188477,1.1481933594-11.9838256836,2.4920043945-17.8524169922,4.0229492188l-8.9262695312,2.1093139648c-1.7817993164,.5783691406-3.5679321289,.9610595703-5.3540039062,1.3438110352-2.0412597656,.5783691406-4.0782470703,1.1567382812-6.1195068359,2.1093139648-1.2758178711,.5783081055-2.551574707,.9610595703-3.5722045898,1.1566772461-1.7818603516,.5698852539-4.3333740234,1.7265625-7.6504516602,3.4446411133-1.7860717773,.5783691406-3.823059082,1.7265625-6.1195068359,3.2659912109-3.3170166016,1.9136962891-5.3540039062,3.453125-6.3746337891,4.6013183594-1.7860717773,1.3438720703-2.8067016602,2.6876220703-2.8067016602,3.6402587891,0,.5783691406,.2551269531,1.34375,.7654418945,1.9221191406,1.7860717773,2.4920654297,4.0825195312,4.2186279297,7.1401367188,5.1711425781,1.0206298828,.1956787109,2.0412597656,.3913574219,2.8067016602,.3913574219,1.2758178711,0,2.2964477539-.1956787109,3.3128051758-.5783691406l9.4365234375-4.2186279297,3.3170166016-1.7265625c.5103149414-.1956787109,1.0206298828-.3826904297,1.2758178711-.5783691406,1.5266723633-.7655029297,3.5679321289-1.5308837891,6.1195068359-2.4920654297,2.2963867188-.9525146484,4.8436889648-1.9135742188,7.3952636719-2.8747558594,2.2963867188-.9610595703,4.84375-2.1092529297,7.6504516602-3.0703125,2.8067016602-.9525756836,5.6091918945-1.7265625,8.671081543-2.4920654297,2.2963867188-.5698242188,4.5885620117-1.3438110352,6.6298217773-2.1092529297,1.7860717773-.7655029297,5.1030883789-1.5309448242,9.4365234375-2.4920654297,4.3376464844-1.3438110352,8.9262084961-2.3048706055,13.2596435547-3.0703735352,1.2757568359-.1871337891,2.551574707-.5698242188,3.827331543-.7654418945,1.0206298828-.1871337891,2.0412597656-.3827514648,3.0618896484-.3827514648,1.0163574219,0,1.7818603516,0,2.5473022461,.1956176758,.0570678711,.0139770508,.1026611328,.0274047852,.1568603516,.0413818359,.403503418,.6224365234,.6171264648,1.6384277344,.6171264648,2.8333740234,0,1.7265625-.2551879883,4.2185668945-.7655029297,7.2890014648-1.7860717773,8.4371948242-2.5515136719,18.0225219727-2.5515136719,28.7645874023,0,3.6402587891,.5102539062,6.1323242188,1.5308837891,7.8588867188s4.0825195312,3.0703125,8.9262695312,3.6401367188l1.7860717773,.1956787109c2.0412597656,0,3.5679321289-1.3438720703,4.5885620117-4.2186279297,.2551879883-.5783691406,.5103149414-.9610595703,.7655029297-1.5308837891,.2551269531-.5783691406,.2551269531-.9610595703,.2551269531-1.3438720703,0-.5783691406-.5103149414-1.1567382812-1.5309448242-1.7265625-1.0206298828-.3826904297-1.5266723633-.7653808594-1.5266723633-1.34375l3.3128051758-19.3664550781c1.2757568359-6.7105712891,2.5515136719-10.359375,3.5721435547-10.9291381836,.7655029297-.5783691406,2.292175293-.9611206055,4.3334350586-1.1567382812,7.3952636719-.9525756836,16.8317871094-4.0229492188,28.8199462891-9.3982543945,.5103149414-.1871337891,1.0206298828-.5698852539,1.5266723633-.9525756836,.5103149414-.3827514648,1.0206298828-.7655029297,1.7860717773-.9611206055,2.8067626953-1.3438110352,6.8850097656-3.6401977539,11.9880981445-6.90625,2.2964477539-1.5308837891,4.5885620117-3.2574462891,6.3746948242-4.9840087891l1.0206298828-.9611206055Zm-7.395324707-30.8739013672l-1.7860717773,4.7969360352c-1.0206298828,1.7265625-1.7860717773,3.0703735352-2.0412597656,4.0229492188-.5103149414,.9610595703-1.0206298828,1.7265625-1.5309448242,2.3049316406-.5103149414,.5783081055-.7612304688,1.1481933594-1.0163574219,1.3438110352-.2551879883,.3827514648-.5103149414,.7654418945-1.0206298828,1.3438110352-3.3170166016,5.9451293945-8.4158935547,11.6947021484-15.5560302734,17.639831543-6.37890625,5.1796875-12.7536010742,9.2026367188-19.3834228516,12.0773925781l-1.5309448242,.3912353516c-.5103149414,0-.7654418945-.1956176758-.7654418945-.7739868164l.2551269531-.5698242188c.5103149414-1.3438110352,1.0206298828-2.4920043945,1.2758178711-3.6487426758,.2551269531-1.1481933594,.7654418945-2.2963867188,1.2757568359-3.2575073242,.2551879883-.9610595703,.5103149414-1.9136352539,.7655029297-2.8747558594,.2551269531-.7654418945,.5103149414-1.5394287109,.7654418945-2.4920043945,.7655029297-1.9221801758,1.5309448242-3.8358764648,2.0369873047-5.9451904297,.2551879883-2.1092529297,.7655029297-3.8358154297,1.5309448242-5.1796264648l2.2964477539-8.0544433594,.2551269531-1.1482543945,3.0618896484-10.5464477539c.7654418945-2.8832397461,1.0163574219-4.9925537109,1.0163574219-5.9451293945,.2551879883-.5783691406,.2551879883-.9611206055,.5103149414-1.3438110352,0-.1956176758,.5103149414-.5783691406,1.2758178711-.7655029297,7.650390625-1.3438110352,14.2844848633-1.9221801758,19.6384887695-1.9221801758,3.3128051758,0,6.1195068359,.1956176758,8.671081543,.7655029297,1.0206298828,.3912353516,1.5309448242,1.3438110352,1.5309448242,2.6876220703,0,1.5309448242-.5103149414,3.8358764648-1.5309448242,7.0933837891Z"/>
      <path class="cls-1" d="M692.0649414062,1017.1210327148c-1.2757568359,0-1.7860717773-.3826904297-2.0412597656-1.3438110352l-1.0206298828-7.8588256836v-3.0703735352c-.5103149414-3.0703735352-.7654418945-6.1407470703-.7654418945-9.2026367188l.2551269531-13.0385131836c0-2.1092529297,.2551879883-4.4141845703,.5103149414-6.5234985352l1.2758178711-15.913269043-.2551879883-6.3278808594h.5103149414l-.2551269531-2.3048706055c-.2551879883-.5783691406-.5103149414-1.1482543945-1.0206298828-1.7265625-3.5679321289-3.0703735352-8.1607666016-4.7969360352-13.7699584961-5.1796875h-.5103149414c-2.2963867188,0-3.827331543,.7654418945-4.8479614258,2.4920043945-1.016418457,1.7265625-2.0369873047,3.453125-2.8024902344,5.1796875-2.8067016602,4.7969360352-4.3376464844,7.6716918945-4.8479614258,9.0155639648-.7655029297,1.3438110352-1.5266723633,2.4920043945-2.292175293,3.8358154297-.7654418945,1.3438110352-1.5309448242,2.8747558594-2.2963867188,4.6013183594-.7655029297,1.7265625-1.5309448242,3.453125-2.551574707,5.1796875s-2.8024902344,4.9840698242-5.0988769531,10.1637573242l-1.0206298828,1.9136352539c-.7654418945,2.6876831055-2.2963867188,5.7580566406-4.0782470703,9.3983154297l-2.2963867188,5.5623779297c-.2551879883,.9611206055-.5103149414,1.7265625-.7655029297,2.4920043945l-4.3376464844,12.2730712891c-.2551879883,1.3438110352-.5103149414,2.6876220703-1.0163574219,3.8358154297-.7655029297,1.1482543945-1.0206298828,2.2964477539-1.0206298828,3.2575073242-.7655029297,2.4920654297-1.2758178711,5.1796875-1.5309448242,7.8673095703,0,1.9136962891,1.2757568359,3.2575683594,3.5679321289,4.0229492188,1.2757568359,.5783691406,2.2963867188,.7655029297,3.5722045898,.9611816406,1.2757568359,.1870117188,2.2963867188,.7653808594,3.5721435547,1.34375,1.016418457,.5698242188,2.292175293,.9526367188,3.5679931641,.9526367188,.7654418945,0,1.7860717773-.1871337891,2.5515136719-.3828125,.7655029297-.1870117188,1.7861328125-.3826904297,2.5473632812-.5698242188,1.7860717773-.3912353516,3.3170166016-.9610595703,4.8479614258-1.5394287109,3.5679321289-1.3438720703,7.1401367188-2.4920654297,10.7122802734-3.453125,2.5473632812-.5698242188,5.0988769531-1.3353271484,7.395324707-2.1092529297,.7654418945-.1871337891,1.2757568359-.3828125,1.5266723633-.3828125,.7655029297,0,1.2757568359,.3828125,1.7860717773,1.1567382812,1.7861328125,3.6402587891,4.8480224609,6.5150146484,9.6917114258,8.6242675781,2.551574707,1.3438720703,5.3540649414,1.9222412109,8.4158935547,1.9222412109h.7655029297c1.5309448242-.1956787109,2.2963867188-.5783691406,2.2963867188-1.1567382812,0-.1871337891-.2551269531-.5698242188-.7654418945-1.1481933594-3.3170166016-3.2574462891-5.3582763672-6.7105712891-6.6298217773-10.3508300781-.2551879883-.7740478516-.5103149414-1.3438720703-.5103149414-1.7265625s1.0206298828-.7740478516,2.8024902344-.9610595703q.2551269531,0,.2551269531-.1956787109l4.5928344727-.5698242188c.7654418945,0,1.7818603516,.1871337891,2.8024291992,.3826904297l1.0206298828,.1871337891c.7655029297,0,1.2758178711-.5698242188,1.2758178711-1.5308837891-.2551879883-.7655029297-.5103149414-1.5309448242-1.2758178711-2.3049316406-2.8024291992-3.2575073242-6.8849487305-5.1712036133-12.494140625-5.7495727539Zm-20.1488647461,3.0704345703c-1.7860717773,.1870727539-6.1195068359,1.3438110352-12.494140625,3.2574462891l-.5103149414,.1956787109q-.2551879883,0-.5103149414-.1956787109-.2551879883,0-.2551879883-.1956176758l1.7861328125-3.827331543c3.5679321289-6.7191162109,6.1195068359-12.8513793945,7.6504516602-18.4137573242,.2551269531-1.5309448242,.7654418945-2.8748168945,1.7860717773-4.2186279297,.2509155273-.1956176758,.5060424805-.7654418945,.5060424805-1.5309448242v1.3353271484c0,1.5394287109,.2551879883,2.8833007812,.5103149414,4.2186279297,.2551879883,1.3438110352,.5103149414,2.6876220703,.7655029297,4.0314331055l1.5309448242,7.4760742188,.2551269531,.7655029297c.2551879883,1.7265625,.5103149414,3.453125,1.2757568359,5.1796875l.2551879883,.7654418945c0,.5783691406-.7655029297,.9611206055-2.551574707,1.1567382812Z"/>
      <path class="cls-1" d="M687.7272949219,1042.6281738281c-2.8024902344-1.34375-5.8643798828-1.9221191406-9.1813964844-1.9221191406h-.5103149414c-.2509155273,0-.5060424805,0-1.0163574219,.1955566406-.5103149414,.1871337891-1.0206298828,.1871337891-1.7861328125,.1871337891-4.8479614258,.3826904297-11.2225952148,1.5394287109-19.1282348633,3.2659912109l-9.6916503906,2.109375c-4.84375,.9525146484-9.1813964844,2.1092529297-13.514831543,3.8358154297-2.0411987305,.5698242188-3.0618286133,1.5308837891-3.0618286133,2.6790771484l.2551269531,1.1567382812c1.2757568359,3.0618896484,4.0825195312,5.3668212891,8.1607666016,6.8977050781,.7654418945,.3828125,1.7860717773,.5783691406,2.8067016602,.5783691406l4.84375-.7653808594c2.2963867188-.3828125,6.6340332031-1.5395507812,12.7535400391-3.453125,11.4735717773-3.453125,19.6343383789-5.7580566406,24.7374267578-6.90625,1.0206298828-.1871337891,2.0412597656-.3828125,2.8024902344-.5783691406l2.0412597656-.3828125c.5103149414,0,1.0206298828,0,1.7860717773,.1956787109,.5103149414,.1871337891,1.0206298828,.3826904297,1.7861328125,.3826904297,.2551269531,0,.7654418945-.1955566406,1.0205688477-.3826904297,.2551879883-.1956787109,.5103149414-.5783691406,.5103149414-.7655029297l-.2551269531-1.1567382812c-.7654418945-2.1092529297-2.551574707-3.8272705078-5.3582763672-5.1711425781Z"/>
      <path class="cls-1" d="M878.2398681641,951.5373535156c-2.0412597656-1.5309448242-3.827331543-2.3049316406-5.3582763672-2.3049316406-.7654418945,0-1.2757568359,.1956176758-1.7818603516,.3827514648-18.1076049805,10.9376831055-34.9393920898,23.5934448242-51.0057373047,38.162902832-3.3170776367,3.0703735352-5.3582763672,4.9925537109-6.6298217773,5.5623779297l.5060424805-.7654418945c.2551879883-.7655029297,.5103149414-1.3438110352,.7655029297-1.9221801758,.2551269531-.3827514648,1.7860717773-3.827331543,5.1030883789-10.5464477539,3.3128051758-6.7106323242,4.84375-9.9681396484,4.84375-10.1637573242l2.0412597656-4.6013183594c1.2757568359-2.1093139648,1.7860717773-3.6402587891,1.7860717773-4.6013183594,0-.5698852539-.2551879883-.9611206055-.5103149414-1.5309448242-1.7860717773-2.1093139648-3.5722045898-3.6487426758-5.8643188477-4.6013183594-2.2964477539-.7655029297-3.8273925781-1.1567382812-5.1031494141-1.1567382812-1.5309448242,0-2.8067016602,.5783691406-4.0782470703,1.5394897461-2.0412597656,2.1092529297-4.8479614258,6.7105712891-8.671081543,13.8039550781-3.827331543,7.2889404297-7.3952636719,15.5305175781-10.7123413086,24.5460205078-.5769042969,1.4862060547-1.1166992188,2.9516601562-1.6390991211,4.4072875977-.2973022461-1.2138061523-1.3122558594-2.301574707-3.2131347656-3.2590332031,0-.1871337891,0-.3827514648-.2508544922-.5698852539-.2551879883-.1956176758-.5103149414-.1956176758-.7655029297-.3827514648h-.7654418945l-1.7861328125,.9526367188c-4.5885620117,2.5004882812-11.7329101562,5.1796264648-21.6755371094,8.4456787109-8.9262084961,3.0618286133-18.6179199219,5.1711425781-29.0750732422,6.3278808594,2.2963867188-1.7265625,6.3746337891-4.4142456055,12.4984130859-8.0544433594,10.1977539062-5.9451904297,20.3997802734-12.8513793945,30.3466186523-20.5231323242,9.9468383789-7.6716918945,15.045715332-14.5779418945,15.045715332-20.7102050781v-1.1481933594c-1.7860717773-5.1796875-4.5885620117-9.0155029297-8.9262084961-11.3204345703-4.3334350586-2.1093139648-8.4158935547-3.2575073242-11.7286987305-3.4446411133h-6.8892211914c-7.9055786133,0-16.3215332031,1.1482543945-25.4986572266,3.6402587891-3.5722045898,.9611206055-5.3582763672,1.7265625-5.6134033203,1.9136962891-1.2758178711,1.1566772461-3.0576782227,2.3048706055-5.3540649414,3.453125-3.827331543,1.7265625-6.8849487305,4.0314331055-9.6917114258,7.1018066406-.7654418945,.9526367188-1.0206298828,1.7180786133-1.0206298828,2.2964477539s.2551879883,.9610595703,.5103149414,1.1481933594c.5103149414,.9610595703,1.2758178711,1.5394287109,2.551574707,2.1093139648,1.2758178711,.9610595703,1.7861328125,1.5394287109,1.7861328125,1.9221801758-1.5309448242,3.4530639648-2.8067626953,6.9061889648-4.0825195312,10.3508300781-1.2758178711,3.6487426758-2.551574707,8.8284301758-4.3334350586,15.5390014648-.7654418945,2.4920654297-1.5309448242,5.1712036133-1.7860717773,7.6717529297l-.7655029297,3.0618286133c-.2551269531,1.5394897461-.5102539062,3.0704345703-.7654418945,4.7969970703-.2551269531,.9610595703-.7654418945,1.3438110352-1.0206298828,1.3438110352l-2.551574707-.3827514648c-.2509155273,0-.7612304688,.1871337891-1.0163574219,.3827514648-.5103149414,.1870727539-.7654418945,.9610595703-.7654418945,1.9136352539,.2551269531,.1956176758,.2551269531,.3827514648,.2551269531,.5783691406,0,.5783691406-.7654418945,1.1481933594-2.2963867188,1.7265625-1.5309448242,.5698852539-2.2964477539,1.1481933594-2.2964477539,2.1093139648,0,1.3438110352,1.0206298828,2.6876220703,3.3170776367,3.8358154297,1.0206298828,.7655029297,2.2963867188,1.3438720703,3.5679321289,1.9136962891l.2551269531,.5783691406-.2551269531,1.9136352539c-.5103149414,3.8358154297-.7655029297,6.90625-.7655029297,9.3983154297v5.5623779297c.5103149414,3.2574462891,2.0412597656,5.3668212891,4.3376464844,6.7105712891,2.2964477539,1.3438720703,5.0988769531,1.9222412109,7.9056396484,2.109375,1.5309448242,0,2.2963867188-.5698242188,2.2963867188-1.5310058594,0-.3826904297-.2551269531-.7653808594-.5103149414-1.34375-.5103149414-.3828125-.7654418945-1.5310058594-.7654418945-3.453125,0-1.9136962891,0-3.2575683594,.2551269531-4.0229492188,.2551879883-2.109375,.5103149414-3.8359375,.7655029297-5.3753662109,.7654418945-6.5150146484,1.5309448242-9.9680786133,2.5473022461-10.3508300781,1.0206298828-.3827514648,2.551574707-.5783691406,4.8479614258-.5783691406,3.8231201172,0,8.671081543-.3826904297,14.2802734375-1.3438110352,6.8849487305-1.1481933594,16.5766601562-4.2185668945,29.0750732422-9.3897705078,7.0868530273-2.8616943359,13.4169921875-6.2789916992,18.7461547852-10.6458740234-2.1795043945,6.4589233398-3.7885742188,12.591003418-4.716796875,18.3090820312-.2551879883,.5783691406-3.0618896484,1.3438110352-8.9262084961,2.5005493164-11.9880981445,2.1093139648-18.6179199219,4.2186279297-19.3834228516,6.3278808594l-.7654418945,1.9136962891c0,1.7265625,2.2963867188,4.0314941406,7.1443481445,6.90625,1.2715454102,.7653808594,2.292175293,1.1481933594,3.0576171875,1.1481933594,1.0206298828,0,2.551574707-.3828125,4.3377075195-.9611816406,1.7817993164-.5698242188,5.0988769531-1.34375,9.942565918-2.2963867188h.2551879883c.7654418945,0,1.2757568359,.7655029297,1.2757568359,2.2963867188l-.2551269531,3.0704345703c-.5103149414,2.1092529297-.7655029297,4.7969970703-.7655029297,7.8587646484,0,1.5395507812,0,3.0704345703,.2551879883,4.7969970703,.2551269531,1.7265625,1.0206298828,3.2574462891,2.8067016602,4.2186279297,1.7860717773,1.1481933594,3.827331543,1.7265625,6.3746337891,1.7265625,2.2964477539,0,3.3170776367-.3828125,3.3170776367-1.3438720703,0-.1871337891-.2551879883-.5698242188-.5103149414-.9525146484-.2551879883-.3913574219-.5103149414-1.1567382812-.5103149414-2.3049316406,0-2.109375,.5103149414-5.9451904297,1.7860717773-11.1248779297,1.2758178711-6.1322021484,2.292175293-9.7810058594,2.5473022461-10.7335205078,.2551879883-.9611816406,8.671081543-2.8833007812,25.7580566406-5.9451904297,11.22265625-2.1092529297,19.1282348633-3.0703735352,23.4616699219-3.0703735352,1.7860717773,0,3.0618896484,.1870727539,3.827331543,.5783691406,.7655029297,.3827514648,1.2757568359,.7654418945,1.5309448242,1.1481323242,.2551269531,.3828125,.5103149414,.5698242188,.7654418945,.7655029297,.2551879883,.1956787109,.7655029297,.3826904297,1.2758178711,.5783691406,.5060424805,.1871337891,1.0163574219,.3826904297,1.5266723633,.3826904297,.7655029297,0,1.5309448242-.3826904297,2.0412597656-.9610595703s.7654418945-1.3438720703,.7654418945-2.3049316406c0-5.9365844727-6.8849487305-8.8198852539-20.4039916992-8.8198852539-8.9219970703,0-16.0663452148,.3827514648-21.4204101562,.9611206055l-3.823059082,.3826904297c-.7655029297,0-1.0206298828,0-1.0206298828-.1870727539,0-1.7265625,15.8111572266-14.3823242188,47.6887207031-38.358581543,5.3540649414-4.0229492188,8.4159545898-6.3278808594,8.9262695312-6.8977050781,1.2757568359-1.1567382812,2.2921142578-2.1093139648,3.3127441406-2.8832397461,2.8067626953-2.1093139648,5.3582763672-4.7884521484,7.9056396484-8.2415771484,.7654418945-.9611206055,1.0205688477-1.7265625,1.0205688477-2.6876831055,0-1.7265014648-1.0205688477-3.4530639648-3.0576171875-4.9840087891Zm-146.6427001953,43.7252807617c1.2715454102-4.0314331055,3.3128051758-9.7810058594,6.6298217773-17.0699462891l1.5267333984-3.6402587891,2.2963867188-5.3753051758c.7654418945-1.3438110352,1.2757568359-2.6791381836,1.7860717773-4.0229492188,.2551879883-1.3438110352,1.0206298828-2.8747558594,1.7861328125-4.4141845703,.5103149414-.7655029297,.7654418945-1.5309448242,1.0206298828-2.4920654297,.2551269531-.9610595703,.7654418945-1.5308837891,2.0369873047-1.7265625,6.37890625-1.7265014648,13.0087280273-2.6791381836,19.8936767578-2.6791381836,2.2964477539,0,4.84375,.1871337891,7.395324707,.3827514648,1.5308837891,.1871337891,2.2963867188,.1871337891,2.5515136719,.3827514648,.2551879883,.1871337891,.2551879883,.3827514648,.2551879883,.5698242188,0,.3827514648-.2551879883,.9611206055-.7655029297,1.5394897461l-.2551269531,.1870727539c-1.7860717773,3.0703735352-5.6091918945,7.0933837891-11.4777832031,11.8903198242-5.8643798828,4.9840698242-12.2390136719,9.7810058594-18.6136474609,14.5779418945-6.3789672852,4.7884521484-11.4778442383,8.6242675781-15.3051757812,11.1163330078l-.7612304688,.7739257812Z"/>
    </g>
  </g>
  <g id="Text_Bangli" data-name="Text Bangli">
    <g>
      <path class="cls-1" d="M214.5182495117,778.8303833008c10.5762329102-8.8709106445,15.8665161133-20.3189697266,15.8665161133-34.3270263672v-47.9183959961c0-8.7944335938-3.5594482422-16.2960205078-10.6740722656-22.5218505859-7.1146240234-6.1322631836-15.573059082-9.1983642578-25.3837890625-9.1983642578H93.5145263672v232.3327636719h71.3928222656c19.9957275391,0,36.6787109375-5.0776367188,50.0446777344-15.2413330078,14.2292480469-10.8016357422,21.3480834961-25.0819091797,21.3480834961-42.8408203125v-21.5607299805c0-16.6616821289-7.2634277344-29.5640869141-21.7818603516-38.7242431641Zm-72.5452270508-70.9844970703h39.9532470703v36.6574707031c0,4.125-1.7818603516,7.6887207031-5.3370361328,10.7165527344-3.4616088867,2.8322143555-7.5483398438,4.2526245117-12.2602539062,4.2526245117h-22.3559570312v-51.6266479492Zm45.8643798828,131.2694702148c0,10.0701904297-7.6419067383,15.1052856445-22.9300537109,15.1052856445h-22.9343261719v-51.6351928711h28.5562744141c4.618347168,0,8.6540527344,1.4204101562,12.1156616211,4.2611083984,3.4616088867,2.9343261719,5.1924438477,6.4979858398,5.1924438477,10.7080688477v21.5607299805Z"/>
      <path class="cls-1" d="M302.7854003906,664.8647460938l-47.3060302734,232.3327636719h49.0368652344l9.8065185547-47.0933837891h41.3948974609l9.5173339844,47.0933837891h49.1813964844l-47.1614379883-232.3327636719h-64.469543457Zm20.3359985352,142.2540283203l11.8264770508-99.0007324219,11.8265380859,99.0007324219h-23.6530151367Z"/>
      <polygon class="cls-1" points="541.3355102539 815.2242431641 501.6841430664 664.8647460938 434.4674072266 664.8647460938 434.4674072266 897.1975097656 482.9216308594 897.1975097656 482.9216308594 747.5227050781 522.7260742188 897.1975097656 589.7982177734 897.1975097656 589.7982177734 664.8647460938 541.3355102539 664.8647460938 541.3355102539 815.2242431641"/>
      <path class="cls-1" d="M758.2525634766,674.0631103516c-7.0168457031-6.1322631836-15.3859863281-9.1983642578-25.0903930664-9.1983642578h-71.2482299805c-9.7129516602,0-18.0820922852,3.0661010742-25.0988769531,9.1983642578-7.1188964844,6.2258300781-10.6740722656,13.7274169922-10.6740722656,22.5218505859v168.8966064453c0,8.7858886719,3.5551757812,16.2959594727,10.6740722656,22.5217895508,7.016784668,6.1322631836,15.385925293,9.194152832,25.0988769531,9.194152832h71.2482299805c9.7044067383,0,18.0735473633-3.0618896484,25.0903930664-9.194152832,7.1188354492-6.2258300781,10.6740112305-13.7359008789,10.6740112305-22.5217895508v-94.0592041016h-71.3927612305v42.9768676758h22.9300537109v39.8214111328h-45.8601074219v-146.3747558594h45.8601074219v35.4241943359h48.4627075195v-46.6851196289c0-8.7944335938-3.5551757812-16.2960205078-10.6740112305-22.5218505859Z"/>
      <polygon class="cls-1" points="849.9813232422 664.8647460938 801.5185546875 664.8647460938 801.5185546875 897.1975097656 917.1895141602 897.1975097656 917.1895141602 854.2206420898 849.9813232422 854.2206420898 849.9813232422 664.8647460938"/>
      <rect class="cls-1" x="937.236328125" y="664.8647460938" width="48.4627075195" height="232.3327636719"/>
    </g>
  </g>
  <g id="TRUCK_1" data-name="TRUCK 1">
    <circle class="cls-1" cx="490.1920581801" cy="532.3496223299" r="35.3472829177"/>
  </g>
  <g id="TRUCK_2" data-name="TRUCK 2">
    <circle class="cls-1" cx="490.1920581801" cy="407.1664437797" r="35.3472829177"/>
  </g>
  <g id="TRUCK_3" data-name="TRUCK 3">
    <circle class="cls-1" cx="592.4730678733" cy="407.1664437797" r="35.3472829177"/>
  </g>
  <g id="TRUCK_4" data-name="TRUCK 4">
    <circle class="cls-1" cx="592.4730678733" cy="532.3496223299" r="35.3472829177"/>
  </g>
  <g id="Truck">
    <g id="Truck-2" data-name="Truck">
      <circle class="cls-1" cx="490.1920581801" cy="532.3496223299" r="35.3472829177"/>
      <circle class="cls-1" cx="490.1920581801" cy="407.1664437797" r="35.3472829177"/>
      <circle class="cls-1" cx="592.4730678733" cy="407.1664437797" r="35.3472829177"/>
      <circle class="cls-1" cx="592.4730678733" cy="532.3496223299" r="35.3472829177"/>
    </g>
  </g>
</svg>