<?xml version="1.0" encoding="UTF-8"?><svg id="Layer_6" xmlns="http://www.w3.org/2000/svg" viewBox="0 0 1000 1000"><defs><style>.cls-1{fill:#ed1c24;}</style></defs><path class="cls-1" d="M200,100V240c0-22.09,17.91-40,40-40h20c22.09,0,40,17.91,40,40v20c0,7.28-1.95,14.11-5.35,20h105.35V100H200Z"/><path class="cls-1" d="M620,100v105.35c5.89-3.4,12.72-5.35,20-5.35h120c22.09,0,40,17.91,40,40V100h-180Z"/><path class="cls-1" d="M460,200c22.09,0,40,17.91,40,40v20c0,7.28-1.95,14.11-5.35,20h105.35V100h-180v105.35c5.89-3.4,12.72-5.35,20-5.35h20Z"/><path class="cls-1" d="M760,800H440c-7.28,0-14.11-1.95-20-5.35v105.35h380v-140c0,22.09-17.91,40-40,40Z"/><path class="cls-1" d="M200,300v140c0-22.09,17.91-40,40-40h20c22.09,0,40,17.91,40,40v320c0,22.09-17.91,40-40,40h-20c-22.09,0-40-17.91-40-40v140h200V300H200Z"/><path class="cls-1" d="M620,405.35c5.89-3.4,12.72-5.35,20-5.35h120c22.09,0,40,17.91,40,40v-140h-180v105.35Z"/><path class="cls-1" d="M460,400c22.09,0,40,17.91,40,40v220c0,22.09-17.91,40-40,40h180c-7.28,0-14.11-1.95-20-5.35-11.96-6.92-20-19.85-20-34.65V300h-180v105.35c5.89-3.4,12.72-5.35,20-5.35h20Z"/></svg>